<?xml version="1.0" encoding="utf-8"?>
<!-- Generator: Adobe Illustrator 23.0.2, SVG Export Plug-In . SVG Version: 6.00 Build 0)  -->
<svg version="1.1" id="hojskoleLogo" xmlns="http://www.w3.org/2000/svg" xmlns:xlink="http://www.w3.org/1999/xlink" x="0px"
	 y="0px" viewBox="0 0 1516.2 564.5" style="enable-background:new 0 0 1516.2 564.5;" xml:space="preserve">
<style type="text/css">
	.st0{fill:#AB121C;}
</style>
<g>
	<path class="st0" d="M48.1,130.6l10.1-40.1h20.9l-20.8,63.8H38L17.2,90.5h21L48.1,130.6z"/>
	<path class="st0" d="M121.1,108.5l-6.5-0.5c-6.2,0-10.3,2-12,5.9v40.4H82.7V90.5h18.6l0.6,8.2c3.3-6.2,8-9.4,14-9.4
		c2.1,0,4,0.2,5.5,0.7L121.1,108.5z"/>
	<path class="st0" d="M160,154.2c-0.7-1.3-1.3-3.2-1.9-5.7c-3.7,4.6-8.8,6.9-15.3,6.9c-6,0-11.1-1.8-15.3-5.5
		c-4.2-3.6-6.3-8.2-6.3-13.7c0-6.9,2.6-12.1,7.7-15.7c5.1-3.5,12.5-5.3,22.3-5.3h6.1v-3.4c0-5.9-2.5-8.8-7.6-8.8
		c-4.7,0-7.1,2.3-7.1,7h-19.9c0-6.2,2.6-11.2,7.9-15s11.9-5.8,20.1-5.8c8.1,0,14.6,2,19.3,6c4.7,4,7.1,9.4,7.2,16.3v28.2
		c0.1,5.9,1,10.3,2.7,13.4v1H160z M147.6,141.3c2.5,0,4.5-0.5,6.2-1.6c1.6-1.1,2.8-2.3,3.5-3.6v-10.2h-5.8c-6.9,0-10.4,3.1-10.4,9.3
		c0,1.8,0.6,3.3,1.8,4.4C144.1,140.7,145.7,141.3,147.6,141.3z"/>
	<path class="st0" d="M221.6,154.2c-0.7-1.3-1.3-3.2-1.9-5.7c-3.7,4.6-8.8,6.9-15.3,6.9c-6,0-11.1-1.8-15.3-5.5
		c-4.2-3.6-6.3-8.2-6.3-13.7c0-6.9,2.6-12.1,7.7-15.7c5.1-3.5,12.5-5.3,22.3-5.3h6.1v-3.4c0-5.9-2.5-8.8-7.6-8.8
		c-4.7,0-7.1,2.3-7.1,7h-19.9c0-6.2,2.6-11.2,7.9-15s11.9-5.8,20.1-5.8c8.1,0,14.6,2,19.3,6c4.7,4,7.1,9.4,7.2,16.3v28.2
		c0.1,5.9,1,10.3,2.7,13.4v1H221.6z M209.2,141.3c2.5,0,4.5-0.5,6.2-1.6c1.6-1.1,2.8-2.3,3.5-3.6v-10.2h-5.8
		c-6.9,0-10.4,3.1-10.4,9.3c0,1.8,0.6,3.3,1.8,4.4C205.8,140.7,207.3,141.3,209.2,141.3z"/>
</g>
<g>
	<path class="st0" d="M268.9,122.5c-4.5,0-4.7,0.2-4.7,3v13.3c0,9.9,0.5,11.2,5.7,11.8l2.7,0.3c0.6,0.4,0.4,2.1-0.2,2.4
		c-5.1-0.2-8.3-0.3-11.9-0.3c-4,0-7.2,0.2-10.9,0.3c-0.6-0.3-0.8-1.8-0.2-2.4l1.6-0.3c5.3-0.9,5.5-1.9,5.5-11.8v-33.8
		c0-9.9-0.7-11.5-5.5-11.8l-2.4-0.2c-0.6-0.4-0.4-2.1,0.2-2.4c4.6,0.1,7.8,0.3,11.8,0.3c3.7,0,6.9-0.1,10.9-0.3
		c0.6,0.3,0.8,2,0.2,2.4l-1.8,0.2c-5.5,0.6-5.6,2-5.6,11.8v10.8c0,2.9,0.2,3,4.7,3h26.9c4.5,0,4.7-0.1,4.7-3v-10.8
		c0-9.9-0.2-11.3-5.7-11.8l-1.8-0.2c-0.6-0.4-0.4-2.1,0.2-2.4c4.3,0.2,7.5,0.3,11.4,0.3c3.7,0,6.9-0.1,11.1-0.3
		c0.6,0.3,0.8,2,0.2,2.4l-2,0.2c-5.5,0.6-5.6,2-5.6,11.8v33.8c0,9.9,0.2,11.1,5.6,11.8l2.3,0.3c0.6,0.4,0.4,2.1-0.2,2.4
		c-4.5-0.2-7.7-0.3-11.4-0.3c-3.9,0-7.2,0.1-11.4,0.3c-0.6-0.3-0.8-1.8-0.2-2.4l1.8-0.3c5.7-0.9,5.7-1.9,5.7-11.8v-13.3
		c0-2.8-0.2-3-4.7-3H268.9z"/>
	<path class="st0" d="M321.5,122.5c0-18.8,14.1-33.2,33.5-33.2c21.7,0,32.6,15.7,32.6,32.2c0,19-14.5,32.8-32.6,32.8
		C334.1,154.4,321.5,139.4,321.5,122.5z M378.2,124.5c0-15.5-6.9-32.2-24.8-32.2c-9.8,0-22.5,6.7-22.5,27.3c0,13.9,6.8,32,25.3,32
		C367.5,151.5,378.2,143,378.2,124.5z"/>
	<path class="st0" d="M402.2,105.1c0-10.4-0.9-11.6-6.5-12l-2.4-0.2c-0.6-0.4-0.4-2.1,0.2-2.4c5.5,0.2,8.6,0.3,12.6,0.3
		c3.8,0,7-0.1,10.7-0.3c0.6,0.3,0.8,2,0.2,2.4l-1.4,0.2c-5.5,0.8-5.7,2.1-5.7,12V140c0,7.4-0.4,13.9-2.2,18.2
		c-3.1,7.5-9.8,13.5-18.5,13.5c-1.1,0-4-0.1-4-2c0-1.6,1.4-4.3,3.4-4.3c1.1,0,2.3,0.2,3.5,0.6c1.3,0.4,2.6,0.7,3.9,0.7
		c2,0,3.1-1.1,3.8-2.4c2.2-4.4,2.4-18.5,2.4-23.6V105.1z"/>
	<path class="st0" d="M439.2,154.4c-7.9,0-12.9-2.4-14.7-3.5c-1.1-2.1-2.3-8.7-2.5-13.2c0.5-0.7,1.9-0.8,2.3-0.3
		c1.4,4.8,5.3,14,16.2,14c7.9,0,11.7-5.2,11.7-10.8c0-4.1-0.8-8.7-7.7-13.2l-8.9-5.8c-4.7-3.1-10.2-8.5-10.2-16.2
		c0-8.9,7-16.2,19.2-16.2c2.9,0,6.3,0.6,8.7,1.2c1.2,0.4,2.5,0.6,3.3,0.6c0.8,2.3,1.7,7.5,1.7,11.5c-0.4,0.6-1.9,0.8-2.4,0.3
		c-1.2-4.5-3.8-10.6-12.8-10.6c-9.2,0-11.2,6.1-11.2,10.4c0,5.5,4.5,9.4,8,11.6l7.5,4.7c5.9,3.7,11.7,9.1,11.7,18
		C459.2,147.3,451.4,154.4,439.2,154.4z"/>
	<path class="st0" d="M473,104.9c0-9.9-0.2-11.4-5.6-11.8l-2.3-0.2c-0.6-0.4-0.4-2.1,0.2-2.4c4.6,0.2,7.6,0.3,11.8,0.3
		c3.7,0,6.9-0.1,10.9-0.3c0.6,0.3,0.8,2,0.2,2.4l-1.8,0.2c-5.5,0.6-5.6,2-5.6,11.8v10.8c0,1.8,0.2,3.6,1.2,3.6c0.8,0,2-0.6,2.6-1
		c1.3-1.1,3.8-3.6,4.8-4.5l10.2-10.1c1.8-1.7,6.4-6.5,7.3-7.8c0.5-0.7,0.7-1.1,0.7-1.5s-0.4-0.7-1.6-0.9l-2.5-0.6
		c-0.7-0.7-0.6-1.9,0.2-2.4c3.3,0.2,7,0.3,10.3,0.3s6.5-0.1,9.3-0.3c0.7,0.5,0.8,1.8,0.2,2.4c-2.4,0.2-6.1,1.1-8.7,2.6
		s-7.9,5.9-13.2,10.9l-8.5,8c-1.3,1.3-2.2,2.2-2.2,2.9c0,0.7,0.6,1.4,1.8,2.9c8.9,10.2,16.2,18.7,23.5,26.4c2.3,2.3,4.3,3.5,7.5,3.9
		l2.5,0.3c0.7,0.5,0.5,2.1-0.2,2.4c-2.4-0.2-6.1-0.3-10.5-0.3c-3.9,0-7.1,0.1-11.5,0.3c-0.7-0.2-0.9-1.8-0.4-2.4l2.2-0.4
		c1.3-0.2,2.3-0.5,2.3-0.9c0-0.6-0.7-1.3-1.3-2.2c-1.8-2.3-4.2-4.8-7.8-8.8l-7.5-8.5c-5.4-6-6.9-7.9-9.1-7.9c-1.4,0-1.6,1.2-1.6,4.5
		v12.1c0,9.9,0.2,11.2,5.5,11.8l2.5,0.3c0.6,0.4,0.4,2.1-0.2,2.4c-4.6-0.2-7.8-0.3-11.5-0.3c-3.9,0-7,0.1-10.9,0.3
		c-0.6-0.3-0.8-1.7-0.2-2.4l1.9-0.3c5-0.8,5.2-1.9,5.2-11.8V104.9z"/>
	<path class="st0" d="M522.3,122.5c0-18.8,14.1-33.2,33.5-33.2c21.7,0,32.6,15.7,32.6,32.2c0,19-14.5,32.8-32.6,32.8
		C534.9,154.4,522.3,139.4,522.3,122.5z M579,124.5c0-15.5-6.9-32.2-24.8-32.2c-9.8,0-22.5,6.7-22.5,27.3c0,13.9,6.8,32,25.3,32
		C568.2,151.5,579,143,579,124.5z"/>
	<path class="st0" d="M601.6,104.9c0-9.9-0.2-11.4-6.1-11.8l-2.3-0.2c-0.6-0.4-0.4-2.1,0.2-2.4c5.3,0.2,8.5,0.3,12.2,0.3
		c3.7,0,6.9-0.1,11.6-0.3c0.6,0.3,0.8,2,0.2,2.4l-2.3,0.2c-5.5,0.5-5.7,2-5.7,11.8v32.7c0,5.9,0.3,8.4,2,10.2c1,1,2.8,2.2,10.2,2.2
		c8,0,10-0.4,11.5-1.2c1.9-1.1,4.3-4.5,6.2-9.3c0.6-0.5,2.3-0.1,2.3,0.6c0,1-2.6,10.6-3.9,13.2c-4.8-0.2-13.7-0.3-23.4-0.3h-8.6
		c-3.9,0-7,0.1-12.2,0.3c-0.6-0.3-0.8-1.8-0.2-2.4l2.8-0.3c5.5-0.6,5.6-1.9,5.6-11.8V104.9z"/>
	<path class="st0" d="M650.5,104.9c0-9.8-0.2-11.2-5.7-11.8l-1.5-0.2c-0.6-0.4-0.4-2.1,0.2-2.4c4,0.2,7.2,0.3,11.1,0.3h17.7
		c6,0,11.6,0,12.7-0.3c0.6,1.6,1.1,8.4,1.5,12.5c-0.4,0.6-1.9,0.8-2.4,0.2c-1.4-4.4-2.3-7.7-7.1-8.9c-2-0.5-5-0.6-9.1-0.6H661
		c-2.8,0-2.8,0.2-2.8,3.8v18.8c0,2.6,0.3,2.6,3.1,2.6h5.5c3.9,0,6.9-0.2,8-0.6c1.1-0.4,1.8-0.9,2.3-3.3l0.8-3.9
		c0.5-0.6,2.1-0.6,2.4,0.1c0,2.3-0.4,5.9-0.4,9.5c0,3.4,0.4,7,0.4,9c-0.4,0.7-2,0.7-2.4,0.1l-0.8-3.7c-0.4-1.7-1-3.1-2.9-3.6
		c-1.3-0.4-3.6-0.5-7.2-0.5h-5.5c-2.8,0-3.1,0.1-3.1,2.5V138c0,5,0.3,8.2,1.8,9.8c1.1,1.1,3.1,2.2,11.4,2.2c7.2,0,10-0.4,12-1.4
		c1.7-0.9,4.2-4.2,6.7-9.1c0.7-0.5,2-0.2,2.4,0.7c-0.7,3.3-3,10.5-4.2,13.1c-8.5-0.2-16.8-0.3-25.2-0.3h-8.5c-4,0-7.2,0.1-12.8,0.3
		c-0.6-0.3-0.8-1.8-0.2-2.4l3.1-0.3c5.4-0.5,5.8-1.9,5.8-11.8V104.9z"/>
</g>
<path class="st0" d="M368.6,77.4c-8,0-14.5,6.3-14.9,14.2c3.2-1.4,8.9-0.7,14.5,2.1c5.3,2.7,9.1,6.6,10,10c3.2-2.7,5.3-6.8,5.3-11.4
	C383.5,84,376.8,77.4,368.6,77.4z"/>
<path class="st0" d="M343.2,150c-5.7-2.9-9.7-7.3-10.2-10.8c-4.3,2.6-7.1,7.3-7.1,12.7c0,8.2,6.7,14.9,14.9,14.9
	c7.9,0,14.4-6.2,14.9-14.1C352.4,153.3,347.8,152.3,343.2,150z"/>
<circle class="st0" cx="386" cy="63.7" r="11.2"/>
<circle class="st0" cx="325.9" cy="181.4" r="11.2"/>
<circle class="st0" cx="398.1" cy="40.9" r="8.1"/>
<circle class="st0" cx="313.5" cy="205" r="8.1"/>
<g>
	<path class="st0" d="M409.1,422.2c-7.6,15.6-15.6,29.6-24,42.1c-8.4,12.5-17.2,23.3-26.4,32.2c-9.2,9-18.8,15.9-28.8,20.7
		c-10,4.8-20.3,7.2-31,7.2c-4.9,0-9.9-1.5-14.9-4.4c-5-3-9.5-7.2-13.5-12.7c-4-5.5-7.2-12.1-9.6-19.8c-2.5-7.7-3.7-16.3-3.7-25.8
		c0-8.6,1.2-18.8,3.6-30.6c2.4-11.8,5.4-24.1,9-37.1s7.6-25.9,11.9-39c4.3-13,8.5-25,12.4-36.1c4-11,7.5-20.4,10.5-28.3
		s5.1-13.2,6.1-15.9c4.1-10.5,9.4-20.5,16-30c6.6-9.5,13.9-18.3,21.8-26.5c8-8.2,16.3-15.6,25-22.2c8.7-6.6,17.3-12.2,25.8-16.9
		c8.5-4.7,16.5-8.3,24.2-10.8c7.7-2.5,14.4-3.8,20.2-3.8c4.6,0,8.3,1.2,11.3,3.6c3,2.4,5.3,5.5,7,9.4c1.7,3.9,2.9,8.4,3.6,13.5
		c0.7,5.1,1,10.3,1,15.7c0,7.6-2.2,14.9-6.6,22c-4.4,7-9.5,13.3-15.4,18.8c-5.8,5.5-11.6,10.1-17.4,13.7c-5.8,3.6-9.9,6-12.4,7
		l-1.8-4.3c2.5-3.2,4.8-6.9,6.7-10.9c1.9-4.1,3.6-8.3,5.1-12.7c1.4-4.4,2.5-8.9,3.3-13.5s1.1-9,1.1-13.2c0.2-2.9,0-5.7-0.4-8.4
		c-0.4-2.7-1.1-5.2-1.9-7.4c-0.8-2.2-2-3.9-3.4-5.2c-1.4-1.3-3.2-1.9-5.2-1.9c-6.3,0-12.7,3.4-19.4,10.3c-6.7,6.9-13.3,16-19.8,27.5
		c-6.5,11.5-12.9,24.7-19.2,39.6c-6.3,14.9-12.2,30.4-17.8,46.5c-5.6,16.1-10.8,32.2-15.5,48.2c-4.7,16.1-8.8,31.1-12.3,44.9
		c-3.5,13.9-6.2,26.1-8.3,36.6c-2,10.5-3.1,18.1-3.3,22.9c0,2.9,0.4,5.9,1.3,9.1c0.8,3.2,2,6.2,3.6,9s3.3,5.1,5.5,6.9
		c2.1,1.8,4.4,2.7,7,2.7c5.2,0,11-1.6,17.3-4.8c6.3-3.2,12.8-8,19.7-14.5c6.9-6.4,13.8-14.6,20.9-24.4c7.1-9.8,14.1-21.2,21.1-34.3
		L409.1,422.2z"/>
	<path class="st0" d="M441.3,387.4c4.1-9.8,9.1-18.7,15-26.5c5.9-7.9,12.4-14.6,19.6-20.1c7.1-5.5,14.6-9.7,22.6-12.6
		c8-2.9,16-4.3,24.1-4.3c3.6,0,7.5,1,11.8,2.9c4.3,1.9,8.3,4.6,12.1,8c3.7,3.4,6.8,7.5,9.3,12.3c2.5,4.8,3.7,10.1,3.7,15.9
		c0,4.9-0.6,10.5-1.8,16.9c-1.2,6.3-2.7,12.9-4.6,19.6c-1.9,6.7-3.9,13.3-6.1,19.9c-2.2,6.6-4.3,12.7-6.3,18.2
		c-2,5.5-3.9,10.2-5.5,14.1c-1.6,3.9-2.8,6.5-3.4,7.9c-4.1,10-9.1,18.9-15,26.7c-5.9,7.8-12.4,14.4-19.6,19.9
		c-7.1,5.5-14.6,9.7-22.5,12.6s-15.9,4.3-24,4.3c-3.6,0-7.5-0.9-11.8-2.8s-8.3-4.5-12.1-8c-3.7-3.5-6.8-7.6-9.3-12.3
		c-2.5-4.7-3.7-10-3.7-15.7c0-5.1,0.6-10.8,1.8-17.1c1.2-6.3,2.7-12.9,4.6-19.6c1.9-6.7,3.9-13.3,6.1-19.9c2.2-6.6,4.3-12.6,6.3-18
		c2-5.4,3.8-10.1,5.3-14.1C439.5,391.4,440.6,388.7,441.3,387.4z M511.6,337.9c-3.9,0-8.1,3.4-12.6,10.3c-4.5,6.9-9,15.6-13.5,26.3
		c-4.5,10.7-8.8,22.3-12.9,34.9c-4.1,12.6-7.8,24.8-10.9,36.4c-3.1,11.7-5.7,22-7.6,30.8c-1.9,8.9-2.9,14.9-2.9,17.9
		c0,4.9,0.9,8.5,2.8,10.7c1.9,2.2,4.4,3.3,7.6,3.3c2.9,0,5.9-2,9.1-6c3.2-4,6.5-9.3,9.9-15.9c3.4-6.6,6.7-14.2,10-22.9
		s6.5-17.6,9.5-26.8c3-9.2,5.9-18.4,8.5-27.5c2.6-9.1,4.9-17.6,6.9-25.4c1.9-7.8,3.5-14.5,4.6-20.2c1.1-5.7,1.7-9.6,1.7-11.8
		c0-4.9-0.9-8.5-2.8-10.8C517.1,339,514.7,337.9,511.6,337.9z"/>
	<path class="st0" d="M582.2,387.4c4.1-9.8,9.1-18.7,15-26.5c5.9-7.9,12.4-14.6,19.6-20.1c7.1-5.5,14.6-9.7,22.6-12.6
		c8-2.9,16-4.3,24.1-4.3c3.6,0,7.5,1,11.8,2.9c4.3,1.9,8.3,4.6,12.1,8c3.7,3.4,6.8,7.5,9.3,12.3c2.5,4.8,3.7,10.1,3.7,15.9
		c0,4.9-0.6,10.5-1.8,16.9c-1.2,6.3-2.7,12.9-4.6,19.6c-1.9,6.7-3.9,13.3-6.1,19.9c-2.2,6.6-4.3,12.7-6.3,18.2
		c-2,5.5-3.9,10.2-5.5,14.1c-1.6,3.9-2.8,6.5-3.4,7.9c-4.1,10-9.1,18.9-15,26.7c-5.9,7.8-12.4,14.4-19.6,19.9
		c-7.1,5.5-14.6,9.7-22.5,12.6s-15.9,4.3-24,4.3c-3.6,0-7.5-0.9-11.8-2.8s-8.3-4.5-12.1-8c-3.7-3.5-6.8-7.6-9.3-12.3
		c-2.5-4.7-3.7-10-3.7-15.7c0-5.1,0.6-10.8,1.8-17.1c1.2-6.3,2.7-12.9,4.6-19.6c1.9-6.7,3.9-13.3,6.1-19.9c2.2-6.6,4.3-12.6,6.3-18
		c2-5.4,3.8-10.1,5.3-14.1C580.5,391.4,581.6,388.7,582.2,387.4z M652.6,337.9c-3.9,0-8.1,3.4-12.6,10.3c-4.5,6.9-9,15.6-13.5,26.3
		c-4.5,10.7-8.8,22.3-12.9,34.9c-4.1,12.6-7.8,24.8-10.9,36.4c-3.1,11.7-5.7,22-7.6,30.8c-1.9,8.9-2.9,14.9-2.9,17.9
		c0,4.9,0.9,8.5,2.8,10.7c1.9,2.2,4.4,3.3,7.6,3.3c2.9,0,5.9-2,9.1-6c3.2-4,6.5-9.3,9.9-15.9c3.4-6.6,6.7-14.2,10-22.9
		s6.5-17.6,9.5-26.8c3-9.2,5.9-18.4,8.5-27.5c2.6-9.1,4.9-17.6,6.9-25.4c1.9-7.8,3.5-14.5,4.6-20.2c1.1-5.7,1.7-9.6,1.7-11.8
		c0-4.9-0.9-8.5-2.8-10.8C658.1,339,655.6,337.9,652.6,337.9z"/>
	<path class="st0" d="M789.7,204.8c0-3.7-1-6.3-2.9-7.7c-1.9-1.4-4.4-2.1-7.2-1.9c-2.9,0.2-6,0.8-9.4,1.9c-3.4,1.1-6.5,2.3-9.4,3.7
		l-3.3-6.9c17.3-8.5,31.4-14.4,42.3-17.8c10.9-3.4,18.5-5.1,22.7-5.1c1.2,0,2.5,0.5,4.1,1.4c1.5,0.9,3,2.2,4.4,3.9
		c1.4,1.7,2.6,3.6,3.6,5.7c0.9,2.1,1.4,4.3,1.4,6.5c0,1.4-1.9,6.9-5.7,16.8c-3.8,9.8-8.4,22.9-13.8,39.1
		c-4.7,14.9-9.2,28.9-13.5,41.9c-4.2,13-8.3,25.5-12.3,37.3c-4,11.9-7.9,23.3-11.8,34.4c-3.9,11.1-7.7,22-11.4,32.9
		c6.9-9.1,13.9-17.9,20.8-26.3c6.9-8.4,13.7-15.7,20.2-22.1c6.5-6.3,12.6-11.4,18.2-15.1c5.6-3.7,10.5-5.6,14.7-5.6
		c2.5,0,5.3,0.8,8.3,2.4c3,1.6,5.7,3.6,8.1,6.1c2.5,2.5,4.5,5.2,6.1,8.1c1.6,3,2.4,5.7,2.4,8.3c0,2.4-1,5.8-3,10.4
		s-5.2,9.7-9.6,15.4c-4.4,5.7-10,11.7-16.9,18.2c-6.9,6.4-15,12.6-24.5,18.5c-1.2,6.8-2.1,13.2-2.8,19.4c-0.7,6.2-1.1,12.4-1.4,18.5
		c-0.3,6.2-0.3,12.4-0.1,18.8c0.2,6.3,0.6,13.1,1.3,20.2c0.3,2,0.7,3.8,1.1,5.2c0.4,1.4,1.4,2.2,2.9,2.2c1.9-0.2,4.7-1.1,8.4-2.9
		c3.7-1.8,8-4.4,12.9-8c4.9-3.6,10.2-7.9,15.9-13.1c5.7-5.2,11.3-11.2,16.9-18.2l5.8,5.1c-7.1,9-14.9,17.5-23.2,25.5
		c-8.4,8-16.6,15.1-24.8,21.2s-15.7,10.9-22.9,14.5s-12.9,5.3-17.5,5.3c-0.8,0-2-0.4-3.4-1.3c-1.4-0.8-2.9-2.2-4.4-3.9
		s-2.9-4-4.1-6.6c-1.2-2.6-1.9-5.6-2.3-9c-1.4-15.9-1.8-30.5-1.3-43.8c0.5-13.3,2.2-26.2,5.1-38.7c3.6-1.7,7.1-3.7,10.8-6
		c3.6-2.3,6.9-4.4,9.8-6.5c3.4-2.4,6.6-4.8,9.6-7.4c8.8-10.7,15-19.7,18.5-27.2c3.6-7.4,5.3-13.1,5.3-17c0-0.7-0.2-1.5-0.5-2.5
		c-0.3-1-0.8-2-1.4-3c-0.6-1-1.2-1.9-1.8-2.7c-0.6-0.8-1.1-1.1-1.7-1.1c-1.2,0-3.8,1.8-7.9,5.3s-9.1,8.5-15.1,14.9
		c-6,6.3-12.6,13.8-19.8,22.5c-7.2,8.6-14.4,18-21.7,28.2c-4.9,15.4-10,31.3-15.4,47.7c-5.3,16.4-11,34.6-16.9,54.6
		c-1.9,0.3-3.9,0.6-6.1,0.8c-3.9,0.5-9,0.8-15.2,0.8c-2.9,0-5.9-0.1-9.1-0.4c-3.2-0.3-6.3-0.6-9.4-1.1l-1.8-2.5
		c0.8-1.7,3-7.2,6.6-16.6s7.9-21.3,12.9-35.7c5.1-14.4,10.7-30.6,16.9-48.5c6.2-17.9,12.4-36.2,18.8-54.8
		c6.3-18.6,12.5-36.9,18.5-54.8c6-17.9,11.3-34.2,16-48.6c4.7-14.5,8.4-26.4,11.2-35.9C788.3,212.3,789.7,206.7,789.7,204.8z"/>
	<path class="st0" d="M892.5,523c-5.4,0-10.4-1.3-15-3.8s-8.5-5.8-11.7-9.6c-3.2-3.9-5.7-8.2-7.5-12.8c-1.8-4.7-2.7-9.2-2.7-13.6
		c0-3.6,1.3-10.1,3.8-19.6c2.5-9.5,5.8-20.8,9.9-34s8.7-27.7,14-43.4s10.6-31.7,16-47.7c5.4-16.1,10.7-31.7,16-47
		c5.2-15.2,9.9-29,14-41.3c4.1-12.3,7.4-22.5,9.9-30.6s3.8-13,3.8-14.7c0-3.7-1-6.3-2.9-7.7c-1.9-1.4-4.4-2.1-7.4-1.9
		c-3,0.2-6.1,0.8-9.5,1.9c-3.4,1.1-6.5,2.3-9.4,3.7l-3-6.9c17.3-8.5,31.4-14.4,42.3-17.8c10.9-3.4,18.5-5.1,22.7-5.1
		c1.2,0,2.5,0.5,4.1,1.4c1.5,0.9,3,2.2,4.3,3.9c1.4,1.7,2.5,3.6,3.6,5.7c1,2.1,1.5,4.3,1.5,6.5c0,1.4-1.9,7-5.8,16.9
		c-3.9,9.9-8.5,22.9-14,39l-42.7,122.1c4.7-6.6,9.4-12.7,14-18.4c4.6-5.7,8.9-10.7,12.9-15s8-7.7,11.7-10.2
		c3.7-2.5,7.2-3.7,10.4-3.7c2.2,0,4.8,0.9,7.9,2.7s5.9,4.1,8.6,6.9c2.7,2.8,5,5.9,7,9.3c1.9,3.4,2.9,6.8,2.9,10.2
		c0,6.1-0.6,12.6-1.9,19.4s-2.9,13.8-5,20.8c-2,7-4.2,13.8-6.6,20.4c-2.4,6.6-4.7,12.6-6.9,17.9c-2.2,5.3-4.1,9.9-5.8,13.7
		c-1.7,3.8-2.8,6.3-3.3,7.5c-4.9,11.2-10.9,21.3-17.9,30.5c-7,9.1-14.3,17-21.8,23.6c-7.5,6.6-14.9,11.7-22.1,15.4
		C903.7,521.1,897.6,523,892.5,523z M959.5,345.7c-1.7,0-3.9,1.5-6.7,4.4c-2.8,3-6.1,6.7-9.8,11.3c-3.7,4.6-7.7,9.7-12.1,15.5
		c-4.3,5.8-8.8,11.4-13.3,17c-3.4,10.5-7.1,22-11.2,34.5c-4.1,12.5-8.7,27.4-14,44.7c-3,10.2-4.3,18.7-3.7,25.5
		c0.6,6.9,3.3,10.3,8,10.3c3.2,0,6.6-1.9,10.2-5.6c3.6-3.7,7.2-8.7,10.9-14.9c3.7-6.2,7.4-13.3,11-21.3c3.6-8,7.1-16.5,10.4-25.3
		c3.3-8.8,6.4-17.6,9.3-26.5c2.9-8.9,5.4-17.2,7.5-24.9c2.1-7.7,3.8-14.6,5-20.7c1.2-6.1,1.8-10.7,1.8-13.7c0-0.7,0-1.6-0.1-2.7
		c-0.1-1.1-0.3-2.2-0.5-3.4c-0.3-1.2-0.6-2.2-1-3C960.8,346.2,960.2,345.7,959.5,345.7z"/>
	<path class="st0" d="M1021,387.4c4.1-9.8,9.1-18.7,15-26.5c5.9-7.9,12.4-14.6,19.6-20.1c7.1-5.5,14.6-9.7,22.6-12.6
		c8-2.9,16-4.3,24.1-4.3c3.6,0,7.5,1,11.8,2.9c4.3,1.9,8.3,4.6,12.1,8c3.7,3.4,6.8,7.5,9.3,12.3c2.5,4.8,3.7,10.1,3.7,15.9
		c0,4.9-0.6,10.5-1.8,16.9c-1.2,6.3-2.7,12.9-4.6,19.6c-1.9,6.7-3.9,13.3-6.1,19.9c-2.2,6.6-4.3,12.7-6.3,18.2
		c-2,5.5-3.9,10.2-5.5,14.1c-1.6,3.9-2.8,6.5-3.4,7.9c-4.1,10-9.1,18.9-15,26.7c-5.9,7.8-12.4,14.4-19.6,19.9
		c-7.1,5.5-14.6,9.7-22.5,12.6s-15.9,4.3-24,4.3c-3.6,0-7.5-0.9-11.8-2.8s-8.3-4.5-12.1-8c-3.7-3.5-6.8-7.6-9.3-12.3
		c-2.5-4.7-3.7-10-3.7-15.7c0-5.1,0.6-10.8,1.8-17.1c1.2-6.3,2.7-12.9,4.6-19.6c1.9-6.7,3.9-13.3,6.1-19.9c2.2-6.6,4.3-12.6,6.3-18
		c2-5.4,3.8-10.1,5.3-14.1C1019.2,391.4,1020.3,388.7,1021,387.4z M1091.3,337.9c-3.9,0-8.1,3.4-12.6,10.3
		c-4.5,6.9-9,15.6-13.5,26.3c-4.5,10.7-8.8,22.3-12.9,34.9c-4.1,12.6-7.8,24.8-10.9,36.4c-3.1,11.7-5.7,22-7.6,30.8
		c-1.9,8.9-2.9,14.9-2.9,17.9c0,4.9,0.9,8.5,2.8,10.7c1.9,2.2,4.4,3.3,7.6,3.3c2.9,0,5.9-2,9.1-6c3.2-4,6.5-9.3,9.9-15.9
		c3.4-6.6,6.7-14.2,10-22.9s6.5-17.6,9.5-26.8c3-9.2,5.9-18.4,8.5-27.5c2.6-9.1,4.9-17.6,6.9-25.4c1.9-7.8,3.5-14.5,4.6-20.2
		c1.1-5.7,1.7-9.6,1.7-11.8c0-4.9-0.9-8.5-2.8-10.8C1096.8,339,1094.4,337.9,1091.3,337.9z"/>
	<path class="st0" d="M1161.9,387.4c4.1-9.8,9.1-18.7,15-26.5c5.9-7.9,12.4-14.6,19.6-20.1c7.1-5.5,14.6-9.7,22.6-12.6
		c8-2.9,16-4.3,24.1-4.3c3.6,0,7.5,1,11.8,2.9c4.3,1.9,8.3,4.6,12.1,8c3.7,3.4,6.8,7.5,9.3,12.3c2.5,4.8,3.7,10.1,3.7,15.9
		c0,4.9-0.6,10.5-1.8,16.9c-1.2,6.3-2.7,12.9-4.6,19.6c-1.9,6.7-3.9,13.3-6.1,19.9c-2.2,6.6-4.3,12.7-6.3,18.2
		c-2,5.5-3.9,10.2-5.5,14.1c-1.6,3.9-2.8,6.5-3.4,7.9c-4.1,10-9.1,18.9-15,26.7c-5.9,7.8-12.4,14.4-19.6,19.9
		c-7.1,5.5-14.6,9.7-22.5,12.6s-15.9,4.3-24,4.3c-3.6,0-7.5-0.9-11.8-2.8s-8.3-4.5-12.1-8c-3.7-3.5-6.8-7.6-9.3-12.3
		c-2.5-4.7-3.7-10-3.7-15.7c0-5.1,0.6-10.8,1.8-17.1c1.2-6.3,2.7-12.9,4.6-19.6c1.9-6.7,3.9-13.3,6.1-19.9c2.2-6.6,4.3-12.6,6.3-18
		c2-5.4,3.8-10.1,5.3-14.1C1160.1,391.4,1161.2,388.7,1161.9,387.4z M1232.2,337.9c-3.9,0-8.1,3.4-12.6,10.3
		c-4.5,6.9-9,15.6-13.5,26.3c-4.5,10.7-8.8,22.3-12.9,34.9c-4.1,12.6-7.8,24.8-10.9,36.4c-3.1,11.7-5.7,22-7.6,30.8
		c-1.9,8.9-2.9,14.9-2.9,17.9c0,4.9,0.9,8.5,2.8,10.7c1.9,2.2,4.4,3.3,7.6,3.3c2.9,0,5.9-2,9.1-6c3.2-4,6.5-9.3,9.9-15.9
		c3.4-6.6,6.7-14.2,10-22.9s6.5-17.6,9.5-26.8c3-9.2,5.9-18.4,8.5-27.5c2.6-9.1,4.9-17.6,6.9-25.4c1.9-7.8,3.5-14.5,4.6-20.2
		c1.1-5.7,1.7-9.6,1.7-11.8c0-4.9-0.9-8.5-2.8-10.8C1237.7,339,1235.3,337.9,1232.2,337.9z"/>
	<path class="st0" d="M1369.3,204.8c0-3.7-1-6.3-2.9-7.7c-1.9-1.4-4.4-2.1-7.2-1.9c-2.9,0.2-6,0.8-9.4,1.9c-3.4,1.1-6.5,2.3-9.4,3.7
		l-3.3-6.9c17.3-8.5,31.4-14.4,42.3-17.8c10.9-3.4,18.5-5.1,22.7-5.1c1.2,0,2.5,0.5,4.1,1.4c1.5,0.9,3,2.2,4.4,3.9
		c1.4,1.7,2.6,3.6,3.6,5.7c0.9,2.1,1.4,4.3,1.4,6.5c0,1.4-1.9,6.9-5.7,16.8c-3.8,9.8-8.4,22.9-13.8,39.1
		c-4.7,14.9-9.2,28.9-13.5,41.9c-4.2,13-8.3,25.5-12.3,37.3c-4,11.9-7.9,23.3-11.8,34.4c-3.9,11.1-7.7,22-11.4,32.9
		c6.9-9.1,13.9-17.9,20.8-26.3c6.9-8.4,13.7-15.7,20.2-22.1c6.5-6.3,12.6-11.4,18.2-15.1c5.6-3.7,10.5-5.6,14.7-5.6
		c2.5,0,5.3,0.8,8.3,2.4c3,1.6,5.7,3.6,8.1,6.1c2.5,2.5,4.5,5.2,6.1,8.1c1.6,3,2.4,5.7,2.4,8.3c0,2.4-1,5.8-3,10.4
		s-5.2,9.7-9.6,15.4c-4.4,5.7-10,11.7-16.9,18.2c-6.9,6.4-15,12.6-24.5,18.5c-1.2,6.8-2.1,13.2-2.8,19.4c-0.7,6.2-1.1,12.4-1.4,18.5
		c-0.3,6.2-0.3,12.4-0.1,18.8c0.2,6.3,0.6,13.1,1.3,20.2c0.3,2,0.7,3.8,1.1,5.2c0.4,1.4,1.4,2.2,2.9,2.2c1.9-0.2,4.7-1.1,8.4-2.9
		c3.7-1.8,8-4.4,12.9-8c4.9-3.6,10.2-7.9,15.9-13.1c5.7-5.2,11.3-11.2,16.9-18.2l5.8,5.1c-7.1,9-14.9,17.5-23.2,25.5
		c-8.4,8-16.6,15.1-24.8,21.2s-15.7,10.9-22.9,14.5s-12.9,5.3-17.5,5.3c-0.8,0-2-0.4-3.4-1.3c-1.4-0.8-2.9-2.2-4.4-3.9
		s-2.9-4-4.1-6.6c-1.2-2.6-1.9-5.6-2.3-9c-1.4-15.9-1.8-30.5-1.3-43.8c0.5-13.3,2.2-26.2,5.1-38.7c3.6-1.7,7.1-3.7,10.8-6
		c3.6-2.3,6.9-4.4,9.8-6.5c3.4-2.4,6.6-4.8,9.6-7.4c8.8-10.7,15-19.7,18.5-27.2c3.6-7.4,5.3-13.1,5.3-17c0-0.7-0.2-1.5-0.5-2.5
		c-0.3-1-0.8-2-1.4-3c-0.6-1-1.2-1.9-1.8-2.7c-0.6-0.8-1.1-1.1-1.7-1.1c-1.2,0-3.8,1.8-7.9,5.3s-9.1,8.5-15.1,14.9
		c-6,6.3-12.6,13.8-19.8,22.5c-7.2,8.6-14.4,18-21.7,28.2c-4.9,15.4-10,31.3-15.4,47.7c-5.3,16.4-11,34.6-16.9,54.6
		c-1.9,0.3-3.9,0.6-6.1,0.8c-3.9,0.5-9,0.8-15.2,0.8c-2.9,0-5.9-0.1-9.1-0.4c-3.2-0.3-6.3-0.6-9.4-1.1l-1.8-2.5
		c0.8-1.7,3-7.2,6.6-16.6s7.9-21.3,12.9-35.7c5.1-14.4,10.7-30.6,16.9-48.5c6.2-17.9,12.4-36.2,18.8-54.8
		c6.3-18.6,12.5-36.9,18.5-54.8c6-17.9,11.3-34.2,16-48.6c4.7-14.5,8.4-26.4,11.2-35.9C1367.9,212.3,1369.3,206.7,1369.3,204.8z"/>
</g>
</svg>
